<svg version="1.1" xmlns="http://www.w3.org/2000/svg" xmlns:xlink="http://www.w3.org/1999/xlink" width="120" height="4.97392" viewBox="0,0,120,4.97392"><defs><linearGradient x1="40.0001" y1="150.00002" x2="159.9996" y2="150.00002" gradientUnits="userSpaceOnUse" id="color-1"><stop offset="0" stop-color="#27aae1"/><stop offset="1" stop-color="#115489"/></linearGradient><linearGradient x1="44.5025" y1="150.00002" x2="155.4957" y2="150.00002" gradientUnits="userSpaceOnUse" id="color-2"><stop offset="0" stop-color="#2f7eba"/><stop offset="0.506" stop-color="#3f9dd6"/><stop offset="1" stop-color="#3e97d1"/></linearGradient></defs><g transform="translate(-40,-147.51304)"><g data-paper-data="{&quot;isPaintingLayer&quot;:true}" fill-rule="nonzero" stroke="none" stroke-width="1" stroke-linecap="butt" stroke-linejoin="miter" stroke-miterlimit="10" stroke-dasharray="" stroke-dashoffset="0" style="mix-blend-mode: normal"><path d="M160,149.99995c0,1.37135 -11.729,2.48701 -26.144,2.48701h-67.713c-14.415,0 -26.143,-1.11556 -26.143,-2.48701c0,-1.37126 11.727,-2.48691 26.143,-2.48691h67.713c14.415,0 26.144,1.11565 26.144,2.48691z" fill="url(#color-1)"/><path d="M155.496,149.99995c0,1.13696 -9.688,2.05865 -21.64,2.05865h-67.713c-11.952,0 -21.641,-0.92169 -21.641,-2.05865v0c0,-1.13687 9.689,-2.05855 21.641,-2.05855h67.713c11.952,0 21.64,0.92169 21.64,2.05855z" fill="url(#color-2)"/></g></g></svg>